<?xml version="1.0" encoding="UTF-8" standalone="no"?>
<!-- Created with Inkscape (http://www.inkscape.org/) -->

<svg
   version="1.1"
   id="svg1"
   width="1536"
   height="1024"
   viewBox="0 0 1536 1024"
   sodipodi:docname="favicon1.svg"
   inkscape:version="1.4.2 (f4327f4, 2025-05-13)"
   xmlns:inkscape="http://www.inkscape.org/namespaces/inkscape"
   xmlns:sodipodi="http://sodipodi.sourceforge.net/DTD/sodipodi-0.dtd"
   xmlns="http://www.w3.org/2000/svg"
   xmlns:svg="http://www.w3.org/2000/svg">
  <defs
     id="defs1" />
  <sodipodi:namedview
     id="namedview1"
     pagecolor="#ffffff"
     bordercolor="#000000"
     borderopacity="0.25"
     inkscape:showpageshadow="2"
     inkscape:pageopacity="0.0"
     inkscape:pagecheckerboard="0"
     inkscape:deskcolor="#d1d1d1"
     inkscape:zoom="1.0693359"
     inkscape:cx="768.23382"
     inkscape:cy="512.00002"
     inkscape:window-width="2560"
     inkscape:window-height="1334"
     inkscape:window-x="-11"
     inkscape:window-y="-11"
     inkscape:window-maximized="1"
     inkscape:current-layer="g1" />
  <g
     inkscape:groupmode="layer"
     inkscape:label="Image"
     id="g1">
    <path
       style="fill:#6f2707;stroke:none"
       d="m 932.85023,430.2968 -8,-1 c 5.5811,-1.40948 11.2773,0.9281 17,0.99616 13.1434,0.15631 26.1286,-0.25775 39,-3.23151 59.42417,-13.72925 99.19597,-55.57379 129.54787,-106.76465 26.431,-44.578 35.3471,-120.59216 -22.5479,-146.68829 -9.0251,-4.06805 -19.1951,-5.55078 -29,-6.22223 -65.09977,-4.45813 -124.57747,51.21899 -155.39577,102.91052 -10.1968,17.10315 -18.8511,35.22248 -22.169,55 -3.0315,18.07044 -3.0522,35.96454 0.3689,54 1.7673,9.3172 8.6575,21.97089 4.3711,31 -10.2283,21.54554 -31.6003,39.24066 -47.0162,57 -8.604,9.91193 -15.5154,21.20667 -24.3295,31 -28.9116,32.1236 -61.4296,62.13745 -93.8295,90.71448 -34.07292,30.05273 -66.87675,62.16229 -98.99998,94.28552 -17.68323,17.68323 -34.29053,36.07862 -27.76081,63 5.93799,24.4816 31.09156,40.865 55.76081,34.5216 12.42352,-3.1946 22.28711,-11.4361 30.96063,-20.5216 22.57155,-23.64337 39.33865,-55.61828 58.77395,-82 37.2935,-50.6228 76.6025,-99.89862 115.8658,-149 18.1026,-22.63861 36.0748,-45.37866 54.1998,-68 7.1657,-8.9433 20.1132,-19.89386 23.1998,-31 M 634.85409,168.96502 c -19.65491,5.622 3.96326,25.87555 9.57178,32.33178 24.63122,28.35419 51.11395,55.17755 76.34956,83 5.7781,6.37036 28.8836,25.76709 17.966,34.19599 -10.8373,8.367 -23.6611,-14.2826 -29.7361,-21.19599 -25.33428,-28.83062 -50.15582,-58.12292 -75.43981,-87 -6.07459,-6.9378 -27.3385,-38.85644 -36.53546,-20.9815 -5.14582,10.00134 13.05816,25.03949 18.62036,31.9815 23.83063,29.74225 47.38476,59.70569 71.76465,89 6.33081,7.60694 30.26456,29.06128 21.00156,39.78626 -10.87791,12.59472 -28.31724,-17.47406 -34.16673,-24.78626 -24.43078,-30.54016 -48.3706,-61.46246 -72.79931,-92 -6.6806,-8.35119 -19.15137,-32.26904 -31.16669,-17.81482 -8.17779,9.83777 9.69672,25.49854 15.19287,32.81482 22.76422,30.30298 46.36695,59.97241 69.49231,90 5.84723,7.59241 28.22418,27.17487 19.60187,36.89124 -10.57196,11.91345 -24.50024,-11.64618 -30.14508,-18.89124 -23.68695,-30.40179 -47.30426,-60.90918 -71.37579,-91 -5.76001,-7.20031 -21.51584,-36.78277 -32.80555,-24.7716 -6.65164,7.07672 1.10843,15.84332 5.60572,21.7716 12.82589,16.90699 25.39654,34.01947 38.12652,51 l 48,64 c 11.81751,15.75666 23.53015,32.83747 39.87348,44.27851 11.25799,7.88104 23.49762,12.20849 36.99998,14.14203 7.2821,1.04278 16.0516,-2.29328 22,2.7276 15.8809,13.40472 29.5607,29.71807 45,43.68212 5.5164,4.98926 12.7958,13.08918 21,8.99073 5.0375,-2.51648 9.0751,-7.896 13,-11.82099 5.6679,-5.66784 16.2333,-12.91607 18.3041,-21 1.6127,-6.29559 -4.7184,-12.72455 -8.4599,-17 -8.4739,-9.68304 -19.2003,-19.19354 -22.6852,-32 -5.958,-21.89465 4.2372,-44.33325 -2.1952,-66 -6.8804,-23.17572 -24.6147,-41.9422 -40.9244,-59 -17.111,-17.89575 -34.5188,-35.47937 -52.0394,-53 -15.74547,-15.74548 -31.89226,-31.49084 -46.83024,-48 -4.70459,-5.1994 -11.80603,-16.72302 -20.1659,-14.33178 m 406.99611,21.61804 c 7.5443,-0.92652 15.6024,-0.5188 23,1.13891 46.7266,10.47095 49.2169,58.06946 36.6666,95.57483 -20.5647,61.45587 -73.4814,117.5315 -139.66657,123.83026 -6.96,0.66242 -14.1282,-0.15338 -21,-1.26855 -45.7596,-7.42621 -45.5253,-57.21399 -34.3302,-91.56171 19.5363,-59.93963 69.6022,-119.64148 135.33017,-127.71374 m 8,5.13812 c -62.16257,8.18201 -111.62867,64.69959 -129.97137,122.57562 -9.4308,29.75672 -14.2579,79.305 24.9714,87.33411 5.3846,1.10205 11.5368,1.02484 17,0.49615 61.77157,-5.97772 115.27187,-67.00378 134.65587,-122.83026 5.4955,-15.82733 11.4795,-32.95422 9.0439,-50 -3.6327,-25.4245 -31.6506,-40.74103 -55.6998,-37.57562 M 917.85023,426.2968 c -12.1356,21.0951 -31.3899,39.97827 -46.6003,59 -30.5264,38.1753 -60.9046,76.46515 -90.9753,115 -24.1843,30.99158 -48.6943,61.74707 -72.5401,93 -14.6822,19.2428 -27.72077,41.60816 -45.88428,57.82642 -7.34076,6.5545 -16.82563,12.91089 -27,13.11957 -23.07325,0.47326 -25.62586,-25.68647 -19,-41.94599 1.7633,4.51953 -0.85529,9.28009 -0.94599,14 -0.18902,9.8346 8.30408,21.18744 18.94599,20.72144 9.61206,-0.4209 15.43798,-9.95831 20.65124,-16.72144 12.21643,-15.84826 24.81922,-31.40033 37.34949,-47 52.21665,-65.00775 106.53865,-128.52496 156.86965,-195 14.5321,-19.19342 29.1978,-38.31897 44.3904,-57 7.6899,-9.4555 11.662,-19.40686 24.7392,-15 m 7,1 v 1 h -4 l 4,-1 m -173,6 c 17.5144,-3.29992 24.4591,7.70227 37,18.57563 4.3635,3.78326 12.6955,9.26879 13.642,15.42742 2.7095,17.63038 -19.2918,-0.66607 -22.5525,-3.83331 -4.1017,-3.98413 -8.0466,-8.12555 -12.0895,-12.16974 -5.4675,-5.4693 -12.6353,-10.92755 -16,-18 m 294.99997,283 c 11.3754,15.167 9.2532,42.94702 -14,45.81482 -10.1253,1.24878 -18.8759,-4.29309 -26,-10.90509 -23.70167,-21.99811 -43.32857,-51.22088 -62.86947,-76.90973 -12.5206,-16.45978 -25.284,-32.79504 -38.1336,-49 -13.326,-16.80578 -25.9463,-34.15136 -39.2076,-51 -4.1708,-5.29913 -12.4046,-16.11731 -19.0316,-6.77545 -3.444,4.85492 1.8341,10.96857 4.6165,14.77545 8.7621,11.98798 17.3438,24.12097 26.2524,36 25.4367,33.9184 50.5614,68.07917 76,102 12.1539,16.20655 23.257,36.28766 38.3742,49.8264 27.31737,24.4651 71.20197,8.068 79.11107,-26.8264 6.04,-26.64801 -14.1451,-44.0332 -31.1119,-61 -37.5185,-37.51855 -77.49387,-72.50836 -114.99997,-110 -9.02,-9.0166 -18.5434,-17.61676 -28,-26.1698 -3.5719,-3.23059 -7.0916,-8.1925 -12,-9.3811 -7.2197,-1.74829 -15.7304,7.77618 -18.5393,13.5509 -2.9252,6.01355 1.777,11.47461 5.3434,16 9.3164,11.82196 19.2187,23.17676 28.5347,35 36.5502,46.38709 72.3349,95.1178 111.83177,139 11.6484,12.94178 32.1457,18.66309 37.0099,-4 1.5694,-7.31201 -1.5372,-13.06225 -3.1805,-20 m 0,-1 -1,1 z"
       id="path40" />
  </g>
</svg>
